<svg xmlns="http://www.w3.org/2000/svg" viewBox="0 0 34.66 34.63"><defs><style>.cls-1{fill:#00000b;fill-rule:evenodd;}</style></defs><title>phone</title><g id="Слой_2" data-name="Слой 2"><g id="_1" data-name="1"><path class="cls-1" d="M34.64,27.33a1.68,1.68,0,0,1-.51,1.47l-4.88,4.84a2.75,2.75,0,0,1-.86.62,3.57,3.57,0,0,1-1,.33l-.22,0-.48,0a16.91,16.91,0,0,1-2.26-.24,17.14,17.14,0,0,1-3.82-1.17,32,32,0,0,1-5.12-2.81,38.16,38.16,0,0,1-6.09-5.14,40.23,40.23,0,0,1-4.26-4.84,34.51,34.51,0,0,1-2.71-4.27A23,23,0,0,1,.85,12.6a18.86,18.86,0,0,1-.7-2.75A9.08,9.08,0,0,1,0,8q0-.66,0-.73a3.57,3.57,0,0,1,.33-1A2.75,2.75,0,0,1,1,5.39L5.88.51A1.62,1.62,0,0,1,7.05,0a1.37,1.37,0,0,1,.84.28A2.55,2.55,0,0,1,8.52,1L12.44,8.4a1.79,1.79,0,0,1,.18,1.28A2.29,2.29,0,0,1,12,10.86l-1.8,1.8a.61.61,0,0,0-.13.24.9.9,0,0,0-.06.27,6.63,6.63,0,0,0,.66,1.76A16.16,16.16,0,0,0,12,17.08,23.83,23.83,0,0,0,14.64,20a24.33,24.33,0,0,0,2.93,2.62A17,17,0,0,0,19.73,24a5.7,5.7,0,0,0,1.32.53l.46.09a.88.88,0,0,0,.24-.05.62.62,0,0,0,.24-.13l2.09-2.13a2.25,2.25,0,0,1,1.54-.59,1.92,1.92,0,0,1,1,.22h0l7.08,4.18A1.85,1.85,0,0,1,34.64,27.33Z"/></g></g></svg>