<svg xmlns="http://www.w3.org/2000/svg" viewBox="0 0 112.37 32.27"><defs><style>.cls-1,.cls-4{fill:#e9bf46;}.cls-2,.cls-3{fill:#00000c;}.cls-3,.cls-4{fill-rule:evenodd;}</style></defs><title>logo</title><g id="Слой_2" data-name="Слой 2"><g id="_1" data-name="1"><rect class="cls-1" x="1.86" y="23.28" width="17.19" height="2.46"/><rect class="cls-2" x="4.37" y="4.91" width="3.04" height="24.92"/><rect class="cls-2" x="8.49" y="27.03" width="10.55" height="2.8"/><polygon class="cls-3" points="12.32 10.08 15.13 10.07 15.14 21.98 12.34 21.99 12.32 10.08"/><rect class="cls-2" x="-0.07" y="3.13" width="15.27" height="3.13" transform="translate(-1.28 3.71) rotate(-25.49)"/><polygon class="cls-3" points="16.23 13.2 19.03 13.19 19.05 21.98 16.24 21.99 16.23 13.2"/><polygon class="cls-3" points="8.49 7.28 11.3 7.27 11.31 21.98 8.5 22 8.49 7.28"/><path class="cls-3" d="M36.4,15.31H29.53V18.4H36.4a2.17,2.17,0,0,0,1.08-.2.85.85,0,0,0,.31-.73V16.24a.85.85,0,0,0-.31-.73,2.17,2.17,0,0,0-1.08-.2Zm0,5.22H29.53v3.29H36.4a1.87,1.87,0,0,0,1.16-.25,1.15,1.15,0,0,0,.3-.9v-1a1.16,1.16,0,0,0-.3-.91,1.88,1.88,0,0,0-1.16-.25Zm-9.83,5.63v-13H37.66a3.42,3.42,0,0,1,2.24.61,2.44,2.44,0,0,1,.67,1.91v1.58A2,2,0,0,1,40,18.78a2.63,2.63,0,0,1-1.66.7,2.79,2.79,0,0,1,1.73.81A2.33,2.33,0,0,1,40.67,22v1.65a2.17,2.17,0,0,1-1,1.92,5.2,5.2,0,0,1-2.86.62ZM46,21h5.67l-2.81-5.27L46,21Zm-5.79,5.17h3l1.51-2.84h8.21l1.56,2.84h3.39l-7.43-13H47.49l-7.3,13Zm18.12,0v-13h11L68,15.46H61.33V26.16ZM69.38,21l2.86-5.27L75,21H71.44l-1.25,2.34h6.1l1.56,2.84h3.39l-7.43-13H70.88l-7.3,13h3l1.51-2.84.29-.14,1.22-2.92-.21.73Zm12,5.17v-13h3v5H93.8v-5h3v13h-3V20.58H84.39v5.57Zm25-10.64V26.16h-3V15.51H97.44V13.2h14.93v2.31Z"/><polygon class="cls-4" points="65.66 28.27 62.36 28.27 72.17 10.86 75.4 10.87 65.66 28.27"/><path class="cls-3" d="M40.24,32.23V30.42H38.74v1.81H39V30.69h1v1.54Zm1.8-1h-.12l-.11,0-.11,0v-.58h.66l.15,0a.18.18,0,0,1,.09.08.3.3,0,0,1,0,.15.25.25,0,0,1-.07.19.28.28,0,0,1-.2.06Zm-.34,1v-.7l.17-.06h.49a.59.59,0,0,0,.28-.06.45.45,0,0,0,.18-.18.57.57,0,0,0,.07-.28.56.56,0,0,0-.07-.28.44.44,0,0,0-.18-.18.6.6,0,0,0-.28-.06h-.93v1.81Zm3.8-.92a.68.68,0,0,1-.21.49.71.71,0,0,1-.23.15.73.73,0,0,1-.27.05.77.77,0,0,1-.22,0,.75.75,0,0,1-.2-.09.71.71,0,0,1-.16-.14.65.65,0,0,1-.14-.41.72.72,0,0,1,.05-.28.66.66,0,0,1,.15-.22.69.69,0,0,1,.23-.14.78.78,0,0,1,.28-.05.77.77,0,0,1,.22,0,.73.73,0,0,1,.2.09.68.68,0,0,1,.16.14.66.66,0,0,1,.14.41Zm.26,0a1,1,0,0,0,0-.31.94.94,0,0,0-.14-.26,1,1,0,0,0-.48-.34,1,1,0,0,0-.31,0,1,1,0,0,0-.3,0,1,1,0,0,0-.27.13,1,1,0,0,0-.21.2.9.9,0,0,0-.19.56,1,1,0,0,0,0,.31,1,1,0,0,0,.61.61,1,1,0,0,0,.61,0,1,1,0,0,0,.27-.13,1,1,0,0,0,.21-.2.91.91,0,0,0,.19-.56Zm2.62-.67a.94.94,0,0,0-.2-.15,1,1,0,0,0-.24-.1,1,1,0,0,0-.56,0,1,1,0,0,0-.27.13,1,1,0,0,0-.21.2.9.9,0,0,0-.19.56,1,1,0,0,0,0,.31,1,1,0,0,0,.34.48,1,1,0,0,0,.27.14,1,1,0,0,0,.59,0,1,1,0,0,0,.25-.11,1,1,0,0,0,.21-.18l-.16-.22a.7.7,0,0,1-.15.15.71.71,0,0,1-.2.1.73.73,0,0,1-.22,0,.77.77,0,0,1-.22,0,.75.75,0,0,1-.2-.09.7.7,0,0,1-.16-.14.65.65,0,0,1-.14-.41A.72.72,0,0,1,47,31a.65.65,0,0,1,.15-.22.69.69,0,0,1,.23-.14.78.78,0,0,1,.28-.05l.2,0,.18.08a.67.67,0,0,1,.15.12l.17-.2Zm2.43,0v-.27H49.27v.27h.64v1.54h.26V30.69Zm2.56.63a.68.68,0,0,1-.21.49.71.71,0,0,1-.23.15.73.73,0,0,1-.27.05.77.77,0,0,1-.22,0,.75.75,0,0,1-.2-.09.72.72,0,0,1-.16-.14.65.65,0,0,1-.14-.41A.72.72,0,0,1,52,31a.66.66,0,0,1,.15-.22.69.69,0,0,1,.23-.14.78.78,0,0,1,.28-.05.77.77,0,0,1,.22,0,.73.73,0,0,1,.2.09.68.68,0,0,1,.16.14.66.66,0,0,1,.14.41Zm.26,0a1,1,0,0,0,0-.31.94.94,0,0,0-.14-.26,1,1,0,0,0-.48-.34,1,1,0,0,0-.31,0,1,1,0,0,0-.3,0,1,1,0,0,0-.27.13,1,1,0,0,0-.21.2.9.9,0,0,0-.19.56,1,1,0,0,0,0,.31,1,1,0,0,0,.61.61,1,1,0,0,0,.61,0,1,1,0,0,0,.27-.13,1,1,0,0,0,.21-.2.91.91,0,0,0,.19-.56Zm1.68-.13h-.12l-.11,0-.11,0v-.58h.66l.15,0a.18.18,0,0,1,.09.08.3.3,0,0,1,0,.15.26.26,0,0,1-.07.19.28.28,0,0,1-.2.06Zm-.34,1v-.7a.58.58,0,0,1,.17-.06h.49a.59.59,0,0,0,.28-.06.45.45,0,0,0,.18-.18.57.57,0,0,0,.07-.28.56.56,0,0,0-.07-.28.44.44,0,0,0-.18-.18.6.6,0,0,0-.28-.06H54.7v1.81Zm2.5-.26v-.6l.11,0,.11,0h.49l.12,0a.23.23,0,0,1,.08.08.28.28,0,0,1,0,.26.23.23,0,0,1-.08.08l-.11,0h-.72Zm0-1.54H57.2v1.81h1l.17,0a.49.49,0,0,0,.15-.09.42.42,0,0,0,.1-.15.59.59,0,0,0,0-.22.54.54,0,0,0-.08-.3.46.46,0,0,0-.22-.18.88.88,0,0,0-.34-.06h-.41l-.17-.06v-.67Zm1.7,1.81V30.42H58.9v1.81Zm3.42-1.54h.65l.14,0a.19.19,0,0,1,.09.07.25.25,0,0,1,0,.14.27.27,0,0,1,0,.14.21.21,0,0,1-.09.08.34.34,0,0,1-.14,0h-.43l-.11,0-.11,0v-.55Zm0,.82.17-.06h.61l.12,0a.22.22,0,0,1,.08.08.25.25,0,0,1,0,.13.23.23,0,0,1,0,.12.26.26,0,0,1-.08.08l-.11,0-.11,0h-.68v-.46Zm1.27.23a.65.65,0,0,0,0-.17.51.51,0,0,0-.06-.13l-.08-.1-.09-.06a.31.31,0,0,0,.09-.09.42.42,0,0,0,.05-.12.56.56,0,0,0,0-.15.53.53,0,0,0,0-.21.43.43,0,0,0-.11-.16.48.48,0,0,0-.17-.1.66.66,0,0,0-.21,0h-.92v1.81h.92l.18,0,.17-.05a.52.52,0,0,0,.14-.09.42.42,0,0,0,.1-.14.49.49,0,0,0,0-.19Zm1.66-1.12-.78,1.62H65l0-.09.06-.06.11-.06.16,0,.22,0h.55l.12.26h.3l-.87-1.84h-.29l.1.22Zm.19,1.09H65.5l-.15,0-.09.05.4-.87.4.76Zm4.11.53V30.42h-.26V32h-.73V30.49h-.26V32h-.72V30.42h-.26v1.81Zm1.45-.72.11,0,.11,0H72v-.27H71.5l-.11,0-.11,0v-.55h1v-.27H71v1.81h1.38V32H71.28V31.5Zm2.46-.82h1v-.27H73.47v1.81h.26V30.69Zm3.63.63a.68.68,0,0,1-.21.49.72.72,0,0,1-.23.15.73.73,0,0,1-.27.05.77.77,0,0,1-.22,0,.74.74,0,0,1-.2-.09.7.7,0,0,1-.16-.14.65.65,0,0,1-.1-.19.64.64,0,0,1,0-.22A.72.72,0,0,1,76,31a.66.66,0,0,1,.15-.22.69.69,0,0,1,.23-.14.78.78,0,0,1,.28-.05.77.77,0,0,1,.22,0,.73.73,0,0,1,.19.09.68.68,0,0,1,.16.14.65.65,0,0,1,.1.19.67.67,0,0,1,0,.22Zm.26,0a1,1,0,0,0,0-.31.94.94,0,0,0-.14-.26,1,1,0,0,0-.21-.21,1,1,0,0,0-.27-.13,1,1,0,0,0-.31,0,1,1,0,0,0-.3,0,1,1,0,0,0-.27.13,1,1,0,0,0-.21.2.9.9,0,0,0-.14.26.89.89,0,0,0-.05.3,1,1,0,0,0,0,.31.95.95,0,0,0,.61.61,1,1,0,0,0,.31,0,1,1,0,0,0,.57-.18,1,1,0,0,0,.21-.2.94.94,0,0,0,.14-.26.91.91,0,0,0,.05-.3Zm3-.13H80.5l-.11,0-.11,0v-.58h.66a.38.38,0,0,1,.15,0,.18.18,0,0,1,.09.08.3.3,0,0,1,0,.15.25.25,0,0,1-.07.19.28.28,0,0,1-.2.06Zm-.34,1v-.7l.17-.06h.49a.59.59,0,0,0,.28-.06.45.45,0,0,0,.18-.18.57.57,0,0,0,.07-.28.56.56,0,0,0-.07-.28.44.44,0,0,0-.18-.18.6.6,0,0,0-.28-.06H80v1.81Zm2.8-1.62-.78,1.62h.29l0-.09.06-.06.11-.06L83,32l.22,0h.55l.12.26h.3l-.87-1.84H83l.1.22Zm.19,1.09h-.22l-.15,0-.09.05.4-.87.4.76Zm2-.85.1-.09.11-.07.12,0h.25l.1,0,.09.05a.25.25,0,0,1,.07.08.22.22,0,0,1,0,.11.27.27,0,0,1,0,.14.2.2,0,0,1-.09.08.34.34,0,0,1-.14,0h-.3v.27H86l.12,0a.22.22,0,0,1,.08.08.25.25,0,0,1,0,.13.28.28,0,0,1,0,.12.26.26,0,0,1-.08.1A.41.41,0,0,1,86,32l-.22,0-.18,0-.17-.06-.15-.09a.58.58,0,0,1-.12-.12l-.16.22a.82.82,0,0,0,.16.14l.2.1.22.07.22,0a1.18,1.18,0,0,0,.28,0,.72.72,0,0,0,.21-.08.52.52,0,0,0,.14-.13.5.5,0,0,0,.08-.16.57.57,0,0,0,0-.17.54.54,0,0,0,0-.19.42.42,0,0,0-.08-.14.56.56,0,0,0-.14-.11.38.38,0,0,0,.09-.09.32.32,0,0,0,.05-.11.56.56,0,0,0,0-.14.5.5,0,0,0,0-.14.57.57,0,0,0-.07-.15.54.54,0,0,0-.12-.13.58.58,0,0,0-.19-.1.84.84,0,0,0-.26,0l-.22,0-.17.06-.14.09-.13.12.17.2Zm2.55-.16h.65l.14,0a.19.19,0,0,1,.09.07.25.25,0,0,1,0,.14.27.27,0,0,1,0,.14.21.21,0,0,1-.09.08.34.34,0,0,1-.14,0h-.43l-.11,0-.11,0v-.55Zm0,.82.17-.06h.61l.12,0a.22.22,0,0,1,.08.08.25.25,0,0,1,0,.13.22.22,0,0,1,0,.12.26.26,0,0,1-.08.08l-.11,0-.11,0h-.68v-.46Zm1.28.23a.64.64,0,0,0,0-.17.51.51,0,0,0-.06-.13.42.42,0,0,0-.08-.1l-.09-.06a.31.31,0,0,0,.09-.09.42.42,0,0,0,.05-.12.56.56,0,0,0,0-.15.53.53,0,0,0,0-.21.44.44,0,0,0-.11-.16.48.48,0,0,0-.17-.1.66.66,0,0,0-.21,0h-.92v1.81h.92l.18,0,.17-.05a.52.52,0,0,0,.14-.09.41.41,0,0,0,.1-.14.48.48,0,0,0,0-.19Zm1.36.08V30.42h-.26v1.81h.26l1.06-1.39v1.39h.26V30.42h-.26l-1.06,1.39Zm3.86-1.13v-.27H92.78v.27h.64v1.54h.26V30.69Zm1.26,1.13V30.42h-.26v1.81h.26l1.06-1.39v1.39h.26V30.42h-.26l-1.06,1.39Zm3.75-.52-.11,0-.12,0h-.46a.4.4,0,0,1-.16,0,.23.23,0,0,1-.11-.09.3.3,0,0,1,0-.16.23.23,0,0,1,0-.14.27.27,0,0,1,.11-.09.38.38,0,0,1,.16,0h.69v.61Zm0,.93h.26V30.42h-1a.68.68,0,0,0-.23,0,.53.53,0,0,0-.18.11.47.47,0,0,0-.12.17.54.54,0,0,0,0,.22.57.57,0,0,0,.06.26.46.46,0,0,0,.16.18.57.57,0,0,0,.24.09l-.19.28-.09.11-.08.06-.07,0H98v.27h.2l.12,0,.12-.09a.86.86,0,0,0,.12-.16l.29-.46h.33l.17.06Z"/></g></g></svg>